<svg width="1674" height="1208" viewBox="0 0 1674 1208" fill="none" xmlns="http://www.w3.org/2000/svg">
<path d="M1151.74 409.876C1177.74 446.672 1197.44 488.236 1209.27 532.999L1244.8 515.907C1231.78 471.64 1211.75 430.374 1186 393.395L1151.74 409.876Z" fill="#EFEFEF"/>
<path d="M873 867C873 886.882 856.882 903 837 903C817.118 903 801 886.882 801 867C801 847.118 817.118 831 837 831C856.882 831 873 847.118 873 867Z" fill="#EFEFEF"/>
<path fill-rule="evenodd" clip-rule="evenodd" d="M110 0C49.2487 0 0 49.2487 0 110V1098C0 1158.75 49.2487 1208 110 1208H1564C1624.75 1208 1674 1158.75 1674 1098V110C1674 49.2487 1624.75 0 1564 0H110ZM1389 111V110C1389 104.477 1393.48 100 1399 100H1468C1473.52 100 1478 104.477 1478 110V111C1478 116.523 1473.52 121 1468 121H1399C1393.48 121 1389 116.523 1389 111ZM1597.71 83.5293L1581.24 99.9999L1598.1 116.861C1602.01 120.767 1602.01 127.098 1598.1 131.004L1597.39 131.711C1593.49 135.616 1587.16 135.616 1583.25 131.711L1566.39 114.849L1548.92 132.32C1545.02 136.225 1538.68 136.225 1534.78 132.32L1534.07 131.613C1530.17 127.707 1530.17 121.376 1534.07 117.47L1551.54 99.9999L1534.46 82.9203C1530.56 79.0151 1530.56 72.6834 1534.46 68.7782L1535.17 68.0711C1539.07 64.1658 1545.41 64.1658 1549.31 68.0711L1566.39 85.1507L1582.86 68.6801C1586.77 64.7748 1593.1 64.7748 1597 68.6801L1597.71 69.3872C1601.62 73.2924 1601.62 79.6241 1597.71 83.5293ZM837.5 247C625.147 247 453 419.147 453 631.5C453 668.717 458.288 704.698 468.152 738.735C474.926 762.106 483.858 784.56 494.718 805.867C504.497 825.052 515.838 843.307 528.576 860.464C531.159 863.945 533.801 867.38 536.498 870.768C535.516 875.525 535 880.452 535 885.5V935.033V983.5C535 1023.54 567.459 1056 607.5 1056C631.899 1056 653.483 1043.95 666.623 1025.47C675.047 1013.63 680 999.142 680 983.5V982.366C682.651 983.558 685.318 984.721 688 985.854V1034.15V1065.5C688 1105.54 720.459 1138 760.5 1138C800.541 1138 833 1105.54 833 1065.5V1060.98V1058.02V1015.97C834.498 1015.99 835.998 1016 837.5 1016C838.668 1016 839.835 1015.99 841 1015.98V1060.98V1065.5C841 1105.54 873.459 1138 913.5 1138C953.541 1138 986 1105.54 986 1065.5V1034.15V986.274C988.682 985.15 991.349 983.997 994 982.814V983.5C994 999.142 998.953 1013.63 1007.38 1025.47C1020.52 1043.95 1042.1 1056 1066.5 1056C1106.54 1056 1139 1023.54 1139 983.5L1139 935.033L1139 885.5C1139 880.806 1138.55 876.216 1137.7 871.771C1190.45 805.951 1222 722.41 1222 631.5C1222 597.451 1217.57 564.436 1209.27 532.999C1197.44 488.236 1177.74 446.672 1151.74 409.876C1082.12 311.341 967.324 247 837.5 247ZM894 731C894 786.228 938.772 831 994 831C1004.76 831 1015.13 829.299 1024.85 826.151C1032.88 823.55 1040.46 819.96 1047.46 815.526C1075.43 797.798 1094 766.567 1094 731C1094 679.296 1054.76 636.757 1004.44 631.538C1001.01 631.182 997.525 631 994 631C958.627 631 927.544 649.366 909.766 677.082C899.787 692.64 894 711.144 894 731ZM837 903C856.882 903 873 886.882 873 867C873 847.118 856.882 831 837 831C817.118 831 801 847.118 801 867C801 886.882 817.118 903 837 903ZM779.628 739.689C779.874 736.825 780 733.927 780 731C780 679.448 740.991 637.007 690.881 631.585C687.307 631.198 683.677 631 680 631C644.468 631 613.264 649.532 595.526 677.458C585.694 692.938 580 711.304 580 731C580 765.74 597.715 796.343 624.604 814.267C625.245 814.694 625.89 815.114 626.541 815.526C633.537 819.961 641.122 823.55 649.152 826.151C658.868 829.299 669.235 831 680 831C732.301 831 775.224 790.849 779.628 739.689ZM210.086 930.323C211.614 908.781 223.001 889.819 240.175 876.576C225.027 865.704 215.866 848.858 217.17 830.467C219.33 800.021 249.358 776.867 284.238 778.753C304.944 779.872 322.706 789.563 333.27 803.624L429.562 757.3C442.707 801.522 462.856 842.729 488.723 879.637L388.618 927.795C389.045 931.786 389.125 935.858 388.832 939.985C385.775 983.07 343.284 1015.83 293.924 1013.17C244.565 1010.5 207.029 973.408 210.086 930.323ZM1398.46 223C1447.91 223 1488 257.994 1488 301.161C1488 322.744 1477.98 342.283 1461.77 356.428C1477.66 366.462 1488 382.781 1488 401.207C1488 431.712 1459.67 456.441 1424.72 456.441C1411.36 456.441 1398.96 452.826 1388.75 446.654L1244.8 515.907C1231.78 471.64 1211.75 430.374 1186 393.395L1315.67 331.012C1311.32 321.814 1308.91 311.733 1308.91 301.161C1308.91 257.994 1349 223 1398.46 223Z" fill="#EFEFEF"/>
</svg>
